<?xml version="1.0" standalone="no"?>
<!DOCTYPE svg PUBLIC "-//W3C//DTD SVG 20010904//EN"
 "http://www.w3.org/TR/2001/REC-SVG-20010904/DTD/svg10.dtd">
<svg version="1.0" xmlns="http://www.w3.org/2000/svg"
 width="256.000000pt" height="256.000000pt" viewBox="0 0 256.000000 256.000000"
 preserveAspectRatio="xMidYMid meet">

<g transform="translate(0.000000,256.000000) scale(0.100000,-0.100000)"
fill="#000000" stroke="none">
<path d="M1600 2110 l0 -80 -80 0 -80 0 0 -75 0 -75 -75 0 -75 0 0 75 0 75
-80 0 -80 0 0 -155 0 -155 -235 0 -235 0 0 -75 0 -75 -80 0 -80 0 0 -80 0 -80
-80 0 -80 0 0 -310 0 -310 80 0 80 0 0 -75 0 -75 80 0 80 0 0 -80 0 -80 75 0
75 0 0 -75 0 -75 160 0 160 0 0 75 0 75 80 0 80 0 0 -75 0 -75 155 0 155 0 0
75 0 75 80 0 80 0 0 80 0 80 75 0 75 0 0 75 0 75 80 0 80 0 0 310 0 310 -80 0
-80 0 0 155 0 155 80 0 80 0 0 235 0 235 -235 0 -235 0 0 -80z m310 -235 l0
-155 -235 0 -235 0 0 80 0 80 80 0 80 0 0 75 0 75 155 0 155 0 0 -155z m-1100
-540 l0 -75 -75 0 -75 0 0 75 0 75 75 0 75 0 0 -75z m320 -155 l0 -80 -80 0
-80 0 0 80 0 80 80 0 80 0 0 -80z"/>
</g>
</svg>
